# xmcd CD database file
#
# Track frame offsets:
#	150
#	23820
#	44220
#	65540
#	85052
#	104567
#	122847
#	142855
#	163130
#	183965
#
# Disc length: 2704 seconds
#
# Revision: 0
# Processed by: cddbd v1.5.1PL0 Copyright (c) Steve Scherf et al.
# Submitted via: CDex 1.60beta1
#
DISCID=8a0a8e0a
DTITLE=Dazz Band - Time Traveler
DYEAR=2001
DGENRE=Blues
TTITLE0=You Are My Starship
TTITLE1=What's Up In Your World
TTITLE2=Ain't Nuthin' But A Jam Y'all
TTITLE3=Love Don't Make No Sense
TTITLE4=She's My Lady
TTITLE5=Girl You Got A Body
TTITLE6=Oh What A Night
TTITLE7=Do Poppa Do
TTITLE8=Get Off My Groove
TTITLE9=Nasty Boogie
EXTD=YEAR: 2001
EXTT0=
EXTT1=
EXTT2=
EXTT3=
EXTT4=
EXTT5=
EXTT6=
EXTT7=
EXTT8=
EXTT9=
PLAYORDER=
